<svg width="12" height="12" viewBox="0 0 12 12" fill="none" xmlns="http://www.w3.org/2000/svg">
<path d="M6 1C3.243 1 1 3.243 1 6C1 8.757 3.243 11 6 11C8.757 11 11 8.757 11 6C11 3.243 8.757 1 6 1ZM9.9655 5.5H8.5835C8.52182 4.40562 8.21565 3.33898 7.6875 2.3785C8.2996 2.66453 8.82943 3.1007 9.22771 3.64646C9.62599 4.19221 9.87979 4.82983 9.9655 5.5ZM6.265 2.0135C6.7825 2.6955 7.4785 3.9035 7.5785 5.5H4.515C4.5845 4.202 5.012 2.986 5.7405 2.013C5.8265 2.008 5.9125 2 6 2C6.0895 2 6.177 2.008 6.265 2.0135ZM4.344 2.3635C3.852 3.309 3.568 4.381 3.515 5.5H2.0345C2.12088 4.82392 2.37832 4.18105 2.78245 3.63221C3.18658 3.08337 3.72404 2.64669 4.344 2.3635ZM2.0345 6.5H3.5215C3.5895 7.6895 3.854 8.739 4.2995 9.615C3.6906 9.32797 3.16386 8.89209 2.76798 8.34764C2.3721 7.80319 2.11983 7.16773 2.0345 6.5ZM5.725 9.9865C5.0245 9.1375 4.611 7.948 4.5205 6.5H7.577C7.473 7.8865 7.0185 9.098 6.2755 9.986C6.1845 9.992 6.0935 10 6 10C5.907 10 5.8165 9.992 5.725 9.9865ZM7.7305 9.6005C8.208 8.7035 8.4995 7.65 8.576 6.5H9.965C9.88062 7.16214 9.63198 7.79266 9.24171 8.33418C8.85145 8.87569 8.33195 9.31101 7.7305 9.6005Z" fill="white"/>
</svg>
