<svg width="32" height="32" viewBox="0 0 32 32" fill="none" xmlns="http://www.w3.org/2000/svg">
<path d="M26.6667 5.3335H5.33341C3.86275 5.3335 2.66675 6.5295 2.66675 8.00016V24.0002C2.66675 25.4708 3.86275 26.6668 5.33341 26.6668H26.6667C28.1374 26.6668 29.3334 25.4708 29.3334 24.0002V8.00016C29.3334 6.5295 28.1374 5.3335 26.6667 5.3335ZM26.6667 8.00016V8.6815L16.0001 16.9788L5.33341 8.68283V8.00016H26.6667ZM5.33341 24.0002V12.0588L15.1814 19.7188C15.4149 19.9022 15.7032 20.0019 16.0001 20.0019C16.297 20.0019 16.5853 19.9022 16.8187 19.7188L26.6667 12.0588L26.6694 24.0002H5.33341Z" fill="black"/>
</svg>
