<svg width="48" height="48" viewBox="0 0 48 48" fill="none" xmlns="http://www.w3.org/2000/svg">
<g clip-path="url(#clip0_15_518)">
<path d="M10.2112 37.7887C8.48625 36.0637 9.63 32.4394 8.7525 30.3169C7.84125 28.125 4.5 26.3438 4.5 24C4.5 21.6562 7.84125 19.875 8.7525 17.6831C9.63 15.5625 8.48625 11.9362 10.2112 10.2112C11.9362 8.48625 15.5625 9.63 17.6831 8.7525C19.8844 7.84125 21.6562 4.5 24 4.5C26.3438 4.5 28.125 7.84125 30.3169 8.7525C32.4394 9.63 36.0637 8.48625 37.7887 10.2112C39.5137 11.9362 38.37 15.5606 39.2475 17.6831C40.1588 19.8844 43.5 21.6562 43.5 24C43.5 26.3438 40.1588 28.125 39.2475 30.3169C38.37 32.4394 39.5137 36.0637 37.7887 37.7887C36.0637 39.5137 32.4394 38.37 30.3169 39.2475C28.125 40.1588 26.3438 43.5 24 43.5C21.6562 43.5 19.875 40.1588 17.6831 39.2475C15.5625 38.37 11.9362 39.5137 10.2112 37.7887Z" stroke="#212121" stroke-width="4" stroke-linecap="round" stroke-linejoin="round"/>
<path d="M18 21C19.6569 21 21 19.6569 21 18C21 16.3431 19.6569 15 18 15C16.3431 15 15 16.3431 15 18C15 19.6569 16.3431 21 18 21Z" stroke="#212121" stroke-width="4" stroke-linecap="round" stroke-linejoin="round"/>
<path d="M30 33C31.6569 33 33 31.6569 33 30C33 28.3431 31.6569 27 30 27C28.3431 27 27 28.3431 27 30C27 31.6569 28.3431 33 30 33Z" stroke="#212121" stroke-width="4" stroke-linecap="round" stroke-linejoin="round"/>
<path d="M16.5 31.5L31.5 16.5" stroke="#212121" stroke-width="4" stroke-linecap="round" stroke-linejoin="round"/>
</g>
<defs>
<clipPath id="clip0_15_518">
<rect width="48" height="48" fill="white"/>
</clipPath>
</defs>
</svg>
