<svg width="48" height="48" viewBox="0 0 48 48" fill="none" xmlns="http://www.w3.org/2000/svg">
<g clip-path="url(#clip0_15_683)">
<path d="M15.75 30C21.1348 30 25.5 25.6348 25.5 20.25C25.5 14.8652 21.1348 10.5 15.75 10.5C10.3652 10.5 6 14.8652 6 20.25C6 25.6348 10.3652 30 15.75 30Z" stroke="#212121" stroke-width="4" stroke-linecap="round" stroke-linejoin="round"/>
<path d="M1.91797 37.5C3.41626 35.1963 5.46621 33.3033 7.88172 31.9929C10.2972 30.6825 13.0018 29.9961 15.7498 29.9961C18.4979 29.9961 21.2025 30.6825 23.618 31.9929C26.0335 33.3033 28.0834 35.1963 29.5817 37.5" stroke="#212121" stroke-width="4" stroke-linecap="round" stroke-linejoin="round"/>
<path d="M32.25 30C34.9979 29.9984 37.7027 30.6837 40.1184 31.9935C42.534 33.3033 44.584 35.1962 46.0819 37.5" stroke="#212121" stroke-width="4" stroke-linecap="round" stroke-linejoin="round"/>
<path d="M28.6296 11.1937C29.9634 10.6618 31.3981 10.431 32.8314 10.5179C34.2646 10.6047 35.661 11.007 36.9207 11.6961C38.1805 12.3852 39.2725 13.344 40.1187 14.5041C40.9649 15.6641 41.5444 16.9968 41.8159 18.4068C42.0873 19.8168 42.044 21.2693 41.689 22.6606C41.334 24.0519 40.676 25.3476 39.7622 26.4552C38.8483 27.5627 37.7012 28.4548 36.4026 29.0676C35.104 29.6803 33.6861 29.9987 32.2503 30" stroke="#212121" stroke-width="4" stroke-linecap="round" stroke-linejoin="round"/>
</g>
<defs>
<clipPath id="clip0_15_683">
<rect width="48" height="48" fill="white"/>
</clipPath>
</defs>
</svg>
