<svg width="32" height="32" viewBox="0 0 32 32" fill="none" xmlns="http://www.w3.org/2000/svg">
<path d="M23.6095 16.3905C23.4857 16.2666 23.3388 16.1683 23.177 16.1012C23.0153 16.0341 22.8419 15.9996 22.6668 15.9996C22.4917 15.9996 22.3183 16.0341 22.1565 16.1012C21.9948 16.1683 21.8478 16.2666 21.7241 16.3905L19.5988 18.5159C18.6135 18.2225 16.7748 17.5559 15.6095 16.3905C14.4441 15.2252 13.7775 13.3865 13.4841 12.4012L15.6095 10.2759C15.7334 10.1521 15.8317 10.0052 15.8988 9.84345C15.9659 9.6817 16.0004 9.50831 16.0004 9.33319C16.0004 9.15808 15.9659 8.98469 15.8988 8.82294C15.8317 8.66118 15.7334 8.51425 15.6095 8.39053L10.2761 3.05719C10.1524 2.93327 10.0055 2.83495 9.84371 2.76787C9.68196 2.70079 9.50856 2.66626 9.33345 2.66626C9.15834 2.66626 8.98495 2.70079 8.82319 2.76787C8.66144 2.83495 8.5145 2.93327 8.39079 3.05719L4.77479 6.67319C4.26812 7.17986 3.98279 7.87586 3.99345 8.58653C4.02412 10.4852 4.52679 17.0799 9.72412 22.2772C14.9215 27.4745 21.5161 27.9759 23.4161 28.0079H23.4535C24.1575 28.0079 24.8228 27.7305 25.3268 27.2265L28.9428 23.6105C29.0667 23.4868 29.165 23.3399 29.2321 23.1781C29.2992 23.0164 29.3337 22.843 29.3337 22.6679C29.3337 22.4927 29.2992 22.3194 29.2321 22.1576C29.165 21.9958 29.0667 21.8489 28.9428 21.7252L23.6095 16.3905ZM23.4401 25.3399C21.7761 25.3119 16.0828 24.8652 11.6095 20.3905C7.12145 15.9025 6.68679 10.1892 6.66012 8.55853L9.33345 5.88519L12.7815 9.33319L11.0575 11.0572C10.9007 11.2138 10.7855 11.407 10.7222 11.6193C10.6589 11.8316 10.6495 12.0563 10.6948 12.2732C10.7268 12.4265 11.5095 16.0625 13.7228 18.2759C15.9361 20.4892 19.5721 21.2719 19.7255 21.3039C19.9422 21.3505 20.1672 21.3418 20.3796 21.2787C20.5921 21.2155 20.7853 21.0999 20.9415 20.9425L22.6668 19.2185L26.1148 22.6665L23.4401 25.3399Z" fill="black"/>
</svg>
