<svg width="32" height="32" viewBox="0 0 32 32" fill="none" xmlns="http://www.w3.org/2000/svg">
<path d="M16 18.6665C18.9413 18.6665 21.3333 16.2745 21.3333 13.3332C21.3333 10.3918 18.9413 7.99984 16 7.99984C13.0587 7.99984 10.6667 10.3918 10.6667 13.3332C10.6667 16.2745 13.0587 18.6665 16 18.6665ZM16 10.6665C17.4707 10.6665 18.6667 11.8625 18.6667 13.3332C18.6667 14.8038 17.4707 15.9998 16 15.9998C14.5293 15.9998 13.3333 14.8038 13.3333 13.3332C13.3333 11.8625 14.5293 10.6665 16 10.6665Z" fill="black"/>
<path d="M15.2267 29.0852C15.4524 29.2463 15.7227 29.333 16 29.333C16.2773 29.333 16.5477 29.2463 16.7734 29.0852C17.1787 28.7985 26.7054 21.9198 26.6667 13.3332C26.6667 7.45184 21.8814 2.6665 16 2.6665C10.1187 2.6665 5.33337 7.45184 5.33337 13.3265C5.2947 21.9198 14.8214 28.7985 15.2267 29.0852ZM16 5.33317C20.412 5.33317 24 8.92117 24 13.3398C24.028 19.2572 18.1494 24.5705 16 26.3132C13.852 24.5692 7.97204 19.2545 8.00004 13.3332C8.00004 8.92117 11.588 5.33317 16 5.33317Z" fill="black"/>
</svg>
