<svg width="48" height="48" viewBox="0 0 48 48" fill="none" xmlns="http://www.w3.org/2000/svg">
<g clip-path="url(#clip0_15_466)">
<path d="M18 10.5V37.5" stroke="#212121" stroke-width="4" stroke-linecap="round" stroke-linejoin="round"/>
<path d="M4.5 30C6.0913 30 7.61742 29.3679 8.74264 28.2426C9.86786 27.1174 10.5 25.5913 10.5 24C10.5 22.4087 9.86786 20.8826 8.74264 19.7574C7.61742 18.6321 6.0913 18 4.5 18V12C4.5 11.6022 4.65804 11.2206 4.93934 10.9393C5.22064 10.658 5.60218 10.5 6 10.5H42C42.3978 10.5 42.7794 10.658 43.0607 10.9393C43.342 11.2206 43.5 11.6022 43.5 12V18C41.9087 18 40.3826 18.6321 39.2574 19.7574C38.1321 20.8826 37.5 22.4087 37.5 24C37.5 25.5913 38.1321 27.1174 39.2574 28.2426C40.3826 29.3679 41.9087 30 43.5 30V36C43.5 36.3978 43.342 36.7794 43.0607 37.0607C42.7794 37.342 42.3978 37.5 42 37.5H6C5.60218 37.5 5.22064 37.342 4.93934 37.0607C4.65804 36.7794 4.5 36.3978 4.5 36V30Z" stroke="#212121" stroke-width="4" stroke-linecap="round" stroke-linejoin="round"/>
</g>
<defs>
<clipPath id="clip0_15_466">
<rect width="48" height="48" fill="white"/>
</clipPath>
</defs>
</svg>
