<svg width="292" height="289" viewBox="0 0 292 289" fill="none" xmlns="http://www.w3.org/2000/svg">
<path d="M102.554 202.988L145.61 282.584C146.735 284.635 148.443 286.307 150.518 287.388C152.593 288.469 154.942 288.911 157.268 288.658C159.594 288.404 161.792 287.467 163.586 285.964C165.379 284.461 166.687 282.461 167.344 280.215L193.417 193.13L282.414 176.193C284.697 175.738 286.797 174.624 288.453 172.988C290.11 171.353 291.252 169.269 291.738 166.992C292.223 164.716 292.032 162.347 291.186 160.178C290.341 158.009 288.879 156.135 286.981 154.788L212.674 103.428L224.618 13.3743C224.935 11.0563 224.555 8.69634 223.525 6.59536C222.496 4.49438 220.864 2.74761 218.838 1.5778C216.812 0.40801 214.483 -0.1318 212.149 0.027227C209.815 0.186246 207.581 1.03691 205.732 2.4707L133.715 57.8411L52.0827 19.169C49.9596 18.1798 47.5919 17.8381 45.2757 18.1867C42.9595 18.5353 40.7973 19.5587 39.0594 21.1291C37.3214 22.6994 36.0847 24.7471 35.5038 27.0162C34.9229 29.2854 35.0236 31.6754 35.7932 33.8877L65.6237 119.43L3.2782 185.492C1.6617 187.183 0.582945 189.316 0.178261 191.621C-0.226439 193.925 0.0610897 196.298 1.00453 198.439C1.94797 200.58 3.50495 202.393 5.4787 203.65C7.45246 204.906 9.75438 205.549 12.0935 205.498L102.554 202.988Z" fill="#AFE4FF"/>
</svg>
